<svg width="140" height="45" viewBox="0 0 140 45" fill="none" xmlns="http://www.w3.org/2000/svg">
<path d="M3.75 37H8.55V21.2125H12.5625V17.425H8.55V13.075H12.5625V9.25H9.15C5.625 9.25 3.75 11.1625 3.75 14.6125V17.425H0.8625V21.2125H3.75V37ZM23.5014 37.45C29.1264 37.45 32.6139 33.475 32.6139 27.175C32.6139 20.9125 29.1264 16.975 23.5014 16.975C17.9139 16.975 14.4264 20.9125 14.4264 27.175C14.4264 33.475 17.9139 37.45 23.5014 37.45ZM23.5014 33.5875C21.0264 33.5875 19.4514 31.975 19.4514 29.0125V25.375C19.4514 22.45 21.0264 20.8375 23.5014 20.8375C26.0139 20.8375 27.5889 22.45 27.5889 25.375V29.0125C27.5889 31.975 26.0139 33.5875 23.5014 33.5875ZM41.6692 37V25C41.6692 22.8625 43.3567 21.9625 46.5817 21.9625H48.0817V17.425H47.0317C43.9192 17.425 42.3442 19.4125 41.8567 21.475H41.6692V17.425H36.8692V37H41.6692ZM56.3909 37V24.0625C56.3909 21.9625 58.1909 20.9125 60.0284 20.9125C62.1659 20.9125 63.1784 22.3 63.1784 25.1125V37H67.9784V24.0625C67.9784 21.9625 69.7409 20.9125 71.6159 20.9125C73.7534 20.9125 74.7659 22.3 74.7659 25.1125V37H79.5659V24.625C79.5659 19.75 77.3909 16.975 73.5659 16.975C70.4534 16.975 68.2784 18.7375 67.5659 20.9125H67.4909C66.5534 18.2875 64.4909 16.975 61.8284 16.975C58.9034 16.975 57.3284 18.625 56.5784 20.6875H56.3909V17.425H51.5909V37H56.3909ZM89.717 37.45C92.642 37.45 94.7795 36.1375 95.417 33.625H95.642C95.942 35.65 97.217 37 99.2795 37H101.942V33.175H99.992V23.95C99.992 19.4875 97.1795 16.975 91.892 16.975C87.9545 16.975 85.667 18.475 84.242 20.725L87.092 23.275C88.0295 21.925 89.3045 20.8 91.5545 20.8C94.1045 20.8 95.192 22.075 95.192 24.25V25.675H91.8545C86.5295 25.675 83.492 27.6625 83.492 31.675C83.492 35.1625 85.742 37.45 89.717 37.45ZM91.3295 33.9625C89.4545 33.9625 88.367 33.175 88.367 31.6V30.9625C88.367 29.425 89.6045 28.5625 92.117 28.5625H95.192V31.15C95.192 32.9875 93.467 33.9625 91.3295 33.9625ZM111.793 37H115.243V33.175H111.53V21.25H115.543V17.425H111.53V12.0625H107.218V15.4C107.218 16.75 106.768 17.425 105.343 17.425H103.843V21.25H106.73V32.0125C106.73 35.2 108.493 37 111.793 37ZM130.281 34.6375V27.475H136.919V23.6125H130.281V16.4125H126.081V23.6125H119.444V27.475H126.081V34.6375H130.281Z" fill="black"/>
</svg>
